<svg width="1394" height="701" viewBox="0 0 1394 701" fill="none" xmlns="http://www.w3.org/2000/svg">
<g opacity="0.3">
<path d="M445.136 82.711C443.203 83.3201 426.623 87.4165 418.575 89.3886L392.624 113.075C395.059 113.466 400.291 114.207 401.733 114.043C403.175 113.878 410.316 114.36 413.706 114.622C420.443 114.967 434.654 115.588 437.598 115.309C438.356 116.01 440.506 117.406 443.047 117.388C445.589 117.37 450.823 118.135 453.122 118.52C453.68 118.664 455.169 118.9 456.66 118.691C458.524 118.43 460.96 118.43 461.824 118.296C462.688 118.163 465.45 117.477 465.715 116.845C465.928 116.34 468.248 115.543 469.382 115.208C471.709 115.047 476.806 114.349 478.581 112.842C480.799 110.959 484.153 108.955 484.153 107.784C486.358 107.344 490.916 106.121 491.515 104.744C493.499 102.986 497.015 99.4132 495.203 99.185C496.879 98.6611 500.201 97.12 500.082 95.147C499.962 93.174 499.026 90.2949 498.572 89.102C498.203 88.4401 497.493 87.0122 497.607 86.5962C497.75 86.0762 497.859 84.6763 494.9 84.2404C492.532 83.8917 485.047 83.471 481.6 83.3042C480.772 83.3617 478.899 83.4663 478.028 83.4241C476.94 83.3715 472.354 83.5009 472.266 83.321C472.178 83.1411 485.043 77.9672 485.445 77.3426C485.846 76.718 487.078 76.2506 487.472 76.1526C487.788 76.0742 492.48 74.209 494.786 73.2863C495.507 72.8918 496.935 72.0904 496.875 72.0407C496.8 71.9785 498.447 71.0043 498.828 70.7885C499.209 70.5728 500.835 70.0074 502.304 68.6733C503.774 67.3393 506.85 64.6777 503.339 63.5711C500.531 62.6858 498.809 62.6103 498.299 62.6832C498.054 62.4286 497.264 61.9569 496.067 62.1068C495.028 62.0097 493.489 62.6261 492.849 62.9465C488.348 64.7428 485.762 67.3851 485.031 68.4817C484.8 68.4315 484.204 68.348 483.671 68.4159C483.004 68.5007 473.418 71.6084 471.819 72.4093C470.22 73.2102 465.662 74.7461 463.947 75.1315C462.576 75.4399 457.371 77.936 454.939 79.1454C452.477 80.0802 447.068 82.1019 445.136 82.711Z" stroke="white" stroke-width="1.71992"/>
<path d="M494.925 99.1719C492.918 99.5627 488.686 100.334 487.815 100.292C486.727 100.239 480.978 100.254 480.04 100.325C479.101 100.397 462.555 101.236 461.923 101.03M461.923 101.03C461.29 100.823 457.386 98.6438 456.882 97.7998C456.379 96.9558 451.672 96.0254 451.753 95.561C451.835 95.0965 456.013 92.6054 457.741 92.3377C459.469 92.07 462.21 91.7928 463.251 92.0188C464.292 92.2448 467.693 92.4094 469.034 92.8841C470.106 93.2638 471.503 93.3744 472.068 93.3822C471.986 93.4563 471.761 93.6601 471.517 93.8824C471.21 94.1604 472.163 93.0355 474.068 93.1276C475.973 93.2198 484.218 91.9794 485.572 92.5718M461.923 101.03C459.17 100.233 453.55 98.5871 453.093 98.3776C452.522 98.1158 449.29 98.8376 448.746 98.8113C448.201 98.785 444.351 99.4184 443.242 99.7746C442.133 100.131 442.888 101.397 443.153 101.937C443.374 102.387 444.539 103.25 445.143 103.773M483.787 107.591C481.7 107.88 477.241 108.434 476.092 108.331C474.657 108.203 446.628 108.018 446.839 106.916C447.05 105.814 445.813 104.466 445.425 104.037C445.361 103.966 445.263 103.876 445.143 103.773M468.254 115.446C458.818 114.775 439.766 113.155 439.042 112.042M439.042 112.042C438.137 110.652 440.09 109.4 440.281 108.706C440.471 108.013 440.846 105.982 441.336 105.537C441.826 105.093 444.548 103.153 445.143 103.773M439.042 112.042C436.087 113.164 437.048 114.502 437.899 115.032" stroke="white" stroke-width="1.71992"/>
</g>
<g opacity="0.3" filter="url(#filter0_d_416_1592)">
<path d="M1307.06 451.948C1308.18 445.305 1314.29 439.405 1318.95 436.314C1330.36 433.422 1345.57 437.803 1357.44 454.665C1366.94 468.154 1357.25 490.096 1351.21 499.38C1344.65 497.975 1325.73 492.66 1302.55 482.641C1273.57 470.118 1272.66 455.323 1282.28 447.554C1287.84 443.055 1298.26 447.08 1307.06 451.948Z" stroke="white" stroke-width="1.71992" shape-rendering="crispEdges"/>
</g>
<path opacity="0.3" d="M544.133 588.103C546.194 586.869 547.989 584.839 541.07 584.492L532.123 584.32L533.019 583.535C537.263 580.199 548.943 573.436 561.714 573.081C574.485 572.725 602.316 574.701 614.635 575.733L597.465 590.776M544.133 588.103L597.465 590.776M544.133 588.103C542.202 589.775 539.943 591.732 537.497 593.855M597.465 590.776L596.57 591.561M537.497 593.855L590.896 596.531M537.497 593.855C530.644 599.801 522.319 607.044 515.585 612.947M590.896 596.531L594.181 593.654M590.896 596.531L569.099 615.629M594.181 593.654L602.006 594.046C603.011 594.373 604.627 595.45 603.045 597.14C601.464 598.831 588.352 610.141 581.994 615.584C580.488 616.522 576.834 618.312 574.272 617.963C573.284 617.913 568.918 617.694 566.859 617.591M594.181 593.654L596.57 591.561M566.859 617.591L562.306 621.58M566.859 617.591L569.099 615.629M562.306 621.58L557.752 625.57C556.192 627.382 551.488 630.677 545.15 629.364L505.614 627.382C503.562 627.463 500.271 626.837 503.524 623.682C504.272 622.956 506.18 621.24 508.822 618.9M562.306 621.58L571.16 622.024C573.836 621.905 580.506 620.626 585.778 616.465L608.322 596.713C609.053 595.183 609.209 592.084 603.982 591.932C598.756 591.781 596.863 591.622 596.57 591.561M562.306 621.58L508.822 618.9M569.099 615.629L515.585 612.947M515.585 612.947C513.051 615.167 510.743 617.198 508.822 618.9" stroke="white" stroke-width="1.71992"/>
<g opacity="0.3">
<path d="M272.749 311.849L268.415 311.298L241.525 317.653L313.855 326.837L326.116 318.625L322.595 318.178M272.749 311.849L287.227 309.019L288.852 309.225M272.749 311.849L322.595 318.178M322.595 318.178L326.237 313.972L325.153 313.834M325.153 313.834L328.444 312.696M325.153 313.834L288.852 309.225M328.444 312.696L329.527 312.833L370.435 303.936M328.444 312.696L318.962 311.492M292.143 308.087L288.852 309.225M292.143 308.087L290.518 307.881L304.871 299.329L302.952 292.948L314.33 294.392M292.143 308.087L303.521 309.531M370.435 303.936L375.582 304.59L360.042 309.965L367.085 310.859C370.225 309.731 377.582 307.126 381.894 305.737C386.206 304.348 382.895 303.213 380.701 302.819L376.908 302.338M370.435 303.936L376.908 302.338M376.908 302.338L372.295 298.553L357.396 296.662M376.908 302.338L365.531 300.893M314.33 294.392L330.847 293.291L346.56 295.286M314.33 294.392L325.437 295.803M346.56 295.286L349.958 293.47L363.503 295.189L357.396 296.662M346.56 295.286L357.396 296.662M325.437 295.803L303.521 309.531M325.437 295.803L365.531 300.893M303.521 309.531L318.962 311.492M365.531 300.893L318.962 311.492" stroke="white" stroke-width="1.71992"/>
<path d="M294.833 307.763C295.937 307.903 296.584 308.137 296.776 308.389C296.968 308.64 296.702 308.89 296.107 309.096C295.511 309.302 294.574 309.468 293.422 309.549C292.27 309.629 290.981 309.617 289.877 309.477C288.772 309.337 288.125 309.103 287.933 308.852C287.741 308.6 288.007 308.35 288.602 308.144C289.198 307.938 290.135 307.772 291.287 307.692C292.439 307.611 293.728 307.623 294.833 307.763Z" stroke="white" stroke-width="1.71992"/>
</g>
<path opacity="0.3" fill-rule="evenodd" clip-rule="evenodd" d="M927.237 1.042C933.503 0.271259 935.143 10.2986 938.464 15.4815C940.528 18.703 941.721 22.2254 943.084 25.777C944.115 28.4668 943.21 32.1568 945.543 33.9354C953.516 40.0148 967.885 38.8491 971.991 47.8167C974.715 53.7669 962.148 56.5189 958.342 61.8885C954.174 67.7672 955.766 78.9967 948.619 80.7861C940.683 82.773 935.412 70.2766 927.237 69.6766C919.979 69.1438 911.255 83.6938 907.367 77.7584C901.806 69.2686 916.691 58.1239 913.424 48.5891C911.541 43.094 900.857 48.3284 896.082 44.8233C891.04 41.1226 887.182 35.1725 886.836 29.0714C886.491 23.0169 888.36 14.7162 894.249 12.5929C901.759 9.88483 909.773 20.7224 917.31 18.0834C923.741 15.8316 920.451 1.87675 927.237 1.042Z" stroke="white" stroke-width="1.71992"/>
<g opacity="0.3">
<mask id="path-8-inside-1_416_1592" fill="white">
<path d="M80.8717 405.505C80.3924 405.409 79.4863 405.293 78.064 405.046C77.3163 404.916 76.5211 404.725 75.4045 404.533C74.6549 404.404 73.7152 404.309 72.9001 404.168C72.1286 404.034 71.5484 403.839 70.7571 403.701C69.9702 403.563 69.1395 403.437 68.3701 403.3C67.5695 403.158 66.7299 403.033 65.9895 402.897C65.1706 402.747 64.4478 402.592 63.7567 402.457C62.8897 402.289 62.0732 402.153 61.5077 402.025C60.904 401.888 60.2296 401.712 59.4787 401.519C58.8594 401.359 58.0856 401.201 57.4126 401.018C56.7873 400.848 56.3038 400.648 55.6672 400.47C55.0361 400.292 54.2285 400.138 53.6193 399.963C52.9771 399.779 52.6515 399.559 52.071 399.389C51.3991 399.193 50.5354 399.043 50.0014 398.885C49.1418 398.63 48.7353 398.418 48.4346 398.327C48.4182 398.229 48.3851 398.026 48.4532 397.759C48.4974 397.585 48.5115 397.388 48.6554 397.188C48.7874 397.004 48.7751 396.8 49.0319 396.622C49.2962 396.439 49.735 396.274 50.1734 396.127C50.6527 395.967 51.2276 395.823 51.9685 395.742C52.7842 395.654 53.6079 395.598 54.3404 395.546C55.2601 395.48 56.0709 395.414 56.8076 395.389C58.0166 395.349 58.9171 395.397 59.4275 395.404C60.6009 395.699 60.4394 395.719 61.4598 396.035C62.4817 396.352 62.4776 396.353 63.4996 396.67C64.5215 396.986 64.6955 396.966 65.6624 397.289C65.5307 397.295 65.3774 397.303 65.2965 397.307C64.2182 397.359 63.3002 397.445 62.5645 397.561C61.7508 397.689 61.0769 397.847 60.7304 398.046C60.3253 398.278 60.3411 398.56 60.6394 398.862C60.6437 398.868 60.4835 398.875 60.4902 398.881C60.5108 398.9 60.7909 398.913 60.8139 398.93C61.0855 399.167 61.5124 399.418 62.1943 399.685C62.6711 399.871 63.1876 400.056 63.8499 400.225C64.4909 400.388 65.2148 400.544 66.0121 400.689C66.7699 400.826 67.6741 400.925 68.5576 401.043C69.3916 401.155 70.2439 401.268 71.1771 401.361C72.0595 401.449 72.9573 401.55 73.9173 401.62C74.8277 401.687 75.7871 401.717 76.7579 401.767C77.6832 401.815 78.6273 401.893 79.5996 401.924C80.53 401.955 81.4669 401.933 82.4331 401.948C83.2438 401.961 84.1436 402.024 85.0494 402.027C85.8771 402.03 86.682 402.028 87.5624 402.025C87.8981 402.134 88.5346 402.286 89.075 402.51C89.4718 402.674 89.7662 402.865 90.0865 403.057C90.3945 403.241 90.8657 403.432 90.9598 403.615C91.0576 403.806 90.7938 403.986 90.5054 404.148C90.1213 404.364 89.4901 404.525 88.884 404.68C88.2221 404.85 87.5609 405.005 86.7283 405.114C85.8455 405.23 84.8853 405.307 83.9248 405.37C82.8829 405.437 81.8614 405.482 80.8717 405.505ZM101.731 401.347C102.76 401.323 103.715 401.323 104.5 401.303C106.158 401.261 107.144 401.2 107.184 401.199C107.216 401.198 107.294 401.239 107.326 401.239C107.392 401.238 107.438 401.195 107.504 401.197C107.568 401.2 107.603 401.256 107.664 401.261C107.727 401.266 107.758 401.27 107.817 401.276C107.876 401.284 108.023 401.254 108.077 401.263C108.129 401.272 108.107 401.298 108.153 401.309C108.201 401.32 108.434 401.309 108.473 401.322C108.491 401.328 108.345 401.351 108.362 401.358C108.379 401.365 108.245 401.379 108.259 401.386C108.273 401.394 108.415 401.392 108.426 401.4C108.435 401.407 108.394 401.413 108.4 401.419C108.414 401.434 108.603 401.451 108.603 401.465C108.603 401.478 108.383 401.479 108.372 401.491C108.36 401.504 108.506 401.531 108.482 401.542C108.459 401.554 108.443 401.569 108.409 401.579C108.375 401.589 108.231 401.577 108.187 401.585C108.141 401.594 108.181 401.628 108.126 401.634C108.099 401.637 108.058 401.636 108.029 401.638C107.194 401.706 106.17 401.762 105.286 401.893C104.534 402.004 103.958 402.18 103.242 402.338C102.598 402.48 101.997 402.641 101.431 402.822C100.911 402.988 100.229 403.144 99.8139 403.344C99.4287 403.529 99.1768 403.741 98.9119 403.956C98.7034 404.126 98.3704 404.305 98.249 404.512C98.1427 404.692 98.1173 404.893 98.1126 405.102C98.1083 405.289 98.5046 405.497 98.6071 405.706C98.7003 405.897 98.6287 406.095 98.8287 406.304C99.0119 406.496 99.2869 406.694 99.5742 406.901C99.8386 407.092 100.189 407.287 100.553 407.491C100.89 407.679 101.276 407.872 101.707 408.072C102.107 408.257 102.458 408.454 102.947 408.649C103.403 408.831 103.966 409.011 104.505 409.201C104.805 409.307 104.685 409.455 104.226 409.501C104.207 409.503 104.2 409.513 104.181 409.514C103.73 409.551 103.072 409.476 102.785 409.374C102.213 409.172 101.642 408.977 101.159 408.784C100.641 408.576 100.067 408.38 99.6435 408.182C99.1878 407.97 98.9571 407.752 98.6018 407.551C98.2185 407.334 97.9672 407.122 97.6898 406.919C97.3887 406.699 96.9152 406.489 96.7247 406.285C96.5174 406.063 96.3309 405.846 96.2365 405.643C96.133 405.42 96.3217 405.213 96.3304 405.014C96.34 404.792 96.5164 404.593 96.6321 404.401C96.7638 404.182 96.911 403.983 97.1327 403.802C97.3797 403.601 97.6489 403.406 98.0124 403.221C98.383 403.032 98.9019 402.867 99.382 402.698C99.8728 402.524 100.153 402.318 100.746 402.168C101.355 402.013 102.161 401.891 102.864 401.764C102.062 401.783 101.147 401.803 100.222 401.823C99.3893 401.841 98.5248 401.867 97.622 401.884C96.7705 401.9 95.8475 401.875 94.9582 401.889C94.0894 401.903 93.2883 401.988 92.4059 401.999C91.5224 402.01 90.6803 401.991 89.8054 401.998C90.2369 402.149 90.7745 402.328 91.268 402.552C91.6757 402.738 91.8285 402.952 92.1209 403.161C92.4029 403.363 92.7662 403.568 92.8105 403.77C92.855 403.973 92.7802 404.177 92.4573 404.358C92.0727 404.575 91.3949 404.748 90.7502 404.924C90.1096 405.098 89.3968 405.257 88.5186 405.389C87.6782 405.515 86.8166 405.649 85.7758 405.733C84.562 405.832 83.0549 405.858 81.5932 405.897C81.5815 406.167 80.9734 406.509 80.5716 406.697C80.2322 406.856 79.8018 407.048 79.0964 407.238C78.5346 407.389 77.999 407.572 77.1442 407.707C76.3975 407.825 75.4833 407.919 74.4744 408.001C73.7764 408.057 72.9537 408.067 72.1154 408.098C71.361 408.126 70.5844 408.156 69.7073 408.157C68.793 408.158 67.8687 408.104 66.8607 408.036C65.9534 407.975 64.932 407.955 63.9742 407.847C63.1025 407.75 62.203 407.631 61.3085 407.503C60.4722 407.383 59.7225 407.227 58.8815 407.087C59.8246 407.328 60.7816 407.569 61.7518 407.817C62.4085 407.984 62.9177 408.176 63.5748 408.344C64.2358 408.512 64.9666 408.668 65.6203 408.835C66.2861 409.004 67.1335 409.142 67.7836 409.307C68.4544 409.477 68.8701 409.684 69.5154 409.848C70.1942 410.02 71.0987 410.148 71.7391 410.31C72.4278 410.484 72.9681 410.671 73.5996 410.83C74.3055 411.007 75.0527 411.161 75.6701 411.315C76.4136 411.5 76.9299 411.694 77.5164 411.838C78.4206 412.06 79.251 412.204 79.6865 412.303C80.353 412.454 81.1898 412.591 82.1405 412.741C82.944 412.867 83.7171 413.039 84.7097 413.16C85.585 413.267 86.624 413.318 87.6371 413.418C88.5538 413.509 89.4832 413.621 90.5059 413.703C91.45 413.78 92.4231 413.868 93.4521 413.937C94.4145 414 95.4097 414.074 96.4421 414.129C97.4147 414.181 98.4312 414.181 99.4625 414.224C100.441 414.266 101.439 414.295 102.468 414.328C103.45 414.359 104.463 414.44 105.487 414.463C106.47 414.485 107.457 414.466 108.477 414.479C109.457 414.491 110.486 414.548 111.498 414.552C112.543 414.556 113.529 414.509 114.526 414.497C115.556 414.485 116.554 414.464 117.532 414.436C118.538 414.407 119.561 414.396 120.512 414.35C121.485 414.302 122.452 414.252 123.367 414.186C124.296 414.119 125.121 414.012 125.99 413.927C126.864 413.84 127.637 413.724 128.45 413.619C129.263 413.514 130.205 413.444 130.956 413.32C131.699 413.198 132.368 413.054 133.05 412.913C133.721 412.775 134.296 412.615 134.907 412.459C135.504 412.306 136.093 412.15 136.633 411.981C137.159 411.816 137.819 411.677 138.279 411.514C138.761 411.343 139.074 411.152 139.487 410.983C139.921 410.804 140.433 410.641 140.794 410.465C141.173 410.28 141.519 410.095 141.822 409.912C142.14 409.721 142.333 409.521 142.572 409.333C142.823 409.135 142.853 408.925 143.023 408.73C143.2 408.527 143.592 408.342 143.687 408.143C143.787 407.935 143.774 407.724 143.792 407.521C143.81 407.309 143.698 407.097 143.636 406.891C143.571 406.677 143.434 406.467 143.292 406.259C143.145 406.044 143.116 405.832 142.897 405.625C142.671 405.411 142.329 405.201 142.037 404.995C141.735 404.782 141.297 404.579 140.938 404.376C140.567 404.165 140.318 403.952 139.9 403.752C139.465 403.544 138.963 403.345 138.494 403.15C138.001 402.945 137.399 402.755 136.887 402.565C136.342 402.362 135.873 402.16 135.329 401.976C134.738 401.775 134.169 401.583 133.608 401.404C132.973 401.202 132.224 401.031 131.669 400.86C131.274 400.737 131.537 400.705 131.143 400.582C130.543 400.395 129.626 400.243 128.948 400.057C128.285 399.875 127.794 399.663 127.078 399.486C126.363 399.309 125.481 399.162 124.734 398.992C123.975 398.82 123.398 398.614 122.627 398.453C121.826 398.285 120.803 398.175 120.012 398.023C119.165 397.86 118.489 397.667 117.684 397.525C116.777 397.366 115.837 397.242 115.022 397.116C114.013 396.961 113.127 396.818 112.331 396.723C112.254 396.716 112.112 396.742 112.043 396.732C111.406 396.659 110.917 396.569 110.48 396.546C110 396.52 109.037 396.572 107.65 396.585C106.835 396.592 105.8 396.526 104.743 396.544C103.875 396.559 102.953 396.594 101.955 396.616C101.066 396.634 100.159 396.677 99.1885 396.7C98.2872 396.721 97.3335 396.728 96.3787 396.752C95.4697 396.775 94.5729 396.824 93.63 396.849C92.7135 396.873 91.7753 396.892 90.84 396.918C89.9173 396.943 89.0346 397.002 88.1063 397.029C87.1776 397.055 86.1881 397.039 85.2664 397.066C84.3333 397.094 83.4773 397.17 82.5643 397.198C81.625 397.227 80.5191 397.18 79.6151 397.208C79.6939 397.293 80.0186 397.414 80.1035 397.503C80.3148 397.723 80.2653 397.95 80.4381 398.172C80.6175 398.403 80.7691 398.625 80.7955 398.835C80.8256 399.074 80.7903 399.289 80.4653 399.468C80.1091 399.664 79.6168 399.848 78.6239 399.929C78.5476 399.935 78.4195 399.922 78.3386 399.927C77.664 399.972 76.8263 400.031 75.858 400.071C75.0605 400.104 74.1597 400.118 73.2449 400.137C72.3854 400.155 71.5051 400.19 70.6054 400.188C69.6984 400.186 68.7613 400.118 67.8761 400.087C66.9355 400.055 65.9299 400.016 65.0873 399.943C65.7552 400.118 66.5741 400.309 67.4547 400.461C68.2745 400.602 69.2545 400.708 70.2352 400.826C71.1444 400.935 72.1015 401.042 73.1306 401.129C74.0892 401.21 75.0962 401.281 76.1437 401.341C77.1278 401.398 78.1485 401.463 79.1986 401.499C80.1919 401.534 81.215 401.548 82.257 401.564C83.1338 401.577 84.1101 401.618 85.1097 401.62C86.0107 401.623 86.909 401.566 87.8739 401.561C88.7882 401.556 89.7297 401.556 90.6714 401.546C91.5966 401.536 92.5446 401.54 93.4686 401.526C94.4045 401.513 95.3359 401.499 96.2423 401.483C97.193 401.466 98.0758 401.412 98.9619 401.394C99.9358 401.374 100.877 401.367 101.731 401.347ZM62.6505 398.25C62.3533 398.42 62.5216 398.63 62.7678 398.864C63.0816 399.125 63.5781 399.336 64.6463 399.478C65.5415 399.597 66.6856 399.618 67.9023 399.658C68.9493 399.692 70.1094 399.781 71.2252 399.773C72.3193 399.765 73.4055 399.723 74.4166 399.688C75.579 399.648 76.6045 399.573 77.4472 399.517C78.4159 399.451 78.9024 399.247 78.9909 398.965C79.0562 398.757 78.8317 398.504 78.6421 398.242C78.4711 398.005 78.2672 397.757 78.0374 397.518C77.9678 397.446 77.9054 397.408 77.8392 397.337C76.8108 397.37 75.8038 397.359 74.8601 397.389C73.8087 397.424 72.8908 397.505 71.9755 397.537C70.8721 397.574 69.7568 397.529 68.9033 397.56C67.5245 397.61 66.6175 397.715 66.0854 397.741C65.444 397.772 64.557 397.775 63.9144 397.871C63.3524 397.954 62.9258 398.092 62.6505 398.25ZM42.8844 402.985C42.8846 402.985 43.0308 402.965 43.0309 402.965C43.0481 402.97 43.5783 403.186 44.7472 403.491C45.2936 403.633 46.1363 403.769 46.8714 403.953C47.4781 404.105 47.872 404.314 48.5821 404.484C49.2245 404.638 49.9626 404.789 50.6721 404.952C51.3443 405.106 52.1136 405.249 52.8313 405.405C53.6625 405.586 54.4267 405.767 55.219 405.928C56.0864 406.104 57.0005 406.251 57.819 406.402C58.7329 406.571 59.5964 406.73 60.4456 406.868C61.4232 407.026 62.4216 407.137 63.3085 407.254C64.3729 407.394 65.2917 407.541 66.2167 407.62C67.3851 407.719 68.4166 407.72 69.3453 407.719C70.5688 407.717 71.7619 407.761 72.7107 407.704C73.8366 407.635 74.6182 407.473 75.4037 407.358C76.368 407.217 77.3 407.099 77.8361 406.948C78.4681 406.771 78.9089 406.583 79.2186 406.42C79.754 406.138 79.8147 405.889 79.7862 405.804C79.4653 405.737 78.2744 405.576 76.947 405.346C76.1003 405.199 75.1982 405.019 74.2537 404.857C73.4901 404.725 72.6478 404.596 71.8169 404.452C71.0312 404.316 70.2622 404.166 69.4557 404.025C68.6545 403.885 67.785 403.762 67.0011 403.622C66.1866 403.477 65.5386 403.295 64.7839 403.156C63.9521 403.003 63.1725 402.857 62.4671 402.719C61.5919 402.549 60.846 402.395 60.2622 402.262C59.6496 402.123 58.8505 401.971 58.1037 401.779C57.4802 401.619 56.8547 401.439 56.181 401.257C55.5536 401.087 54.9136 400.91 54.2757 400.731C53.6424 400.554 53.0769 400.366 52.4646 400.19C51.8232 400.007 51.1581 399.833 50.5747 399.662C49.9077 399.468 49.4135 399.27 48.8728 399.109C48.0784 398.874 47.2522 398.713 46.8733 398.599C46.7952 398.603 46.7694 398.608 46.6609 398.617C46.1868 398.655 45.3843 398.725 44.3392 398.908C43.7751 399.007 43.1171 399.133 42.3853 399.298C41.8434 399.42 41.3931 399.589 40.7586 399.755C40.1035 399.927 39.6417 400.107 39.4138 400.315C39.1813 400.527 39.043 400.748 39.162 400.981C39.2769 401.206 39.6756 401.435 40.032 401.666C40.3822 401.892 40.6598 402.126 41.1609 402.344C41.6783 402.569 42.2942 402.784 42.8844 402.985ZM30.4935 385.575C30.7846 385.711 31.4664 385.896 32.1699 386.147C32.6462 386.316 33.0275 386.526 33.6563 386.737C34.1833 386.914 34.9748 387.08 35.5897 387.281C36.1419 387.461 36.4175 387.685 37.0272 387.88C37.5951 388.062 38.2499 388.243 38.8573 388.435C39.4362 388.618 40.1143 388.795 40.7201 388.985C41.3074 389.17 41.844 389.364 42.4484 389.552C43.0431 389.737 43.7357 389.912 44.3391 390.099C44.9404 390.285 45.5185 390.474 46.121 390.66C46.7285 390.847 47.4581 391.018 48.0592 391.202C48.6729 391.39 49.1173 391.596 49.7162 391.779C50.3363 391.968 51.1307 392.131 51.7258 392.312C52.3527 392.503 52.6615 392.726 53.2502 392.904C53.8894 393.098 54.752 393.252 55.333 393.428C55.9894 393.626 56.3906 393.839 56.9544 394.008C57.6506 394.218 58.2864 394.402 58.8078 394.558C59.9304 394.895 60.6578 395.09 60.6997 395.103C60.7061 395.104 60.8655 395.084 60.8721 395.086C60.8721 395.086 60.7963 395.096 60.7963 395.096C60.7973 395.096 60.8442 395.09 60.8452 395.09C61.4889 395.282 61.4546 395.287 62.0809 395.481C62.0978 395.487 62.1042 395.463 62.1208 395.468C63.0348 395.759 62.8459 395.782 63.7777 396.071C64.3998 396.263 65.0218 396.456 65.6437 396.649C66.577 396.939 66.3406 396.984 67.5222 397.233C68.272 397.206 69.2267 397.151 70.2487 397.116C71.0673 397.088 71.9786 397.067 72.9401 397.035C73.7867 397.007 74.6835 396.978 75.62 396.948C76.4839 396.92 77.408 396.909 78.3326 396.88C78.3726 396.878 78.3837 396.862 78.4262 396.862C78.4354 396.862 78.4957 396.896 78.505 396.896C79.4458 396.866 80.334 396.782 81.3194 396.752C82.2703 396.722 83.2494 396.701 84.2267 396.672C85.1872 396.643 86.1788 396.629 87.1509 396.601C88.1211 396.573 89.0963 396.547 90.0642 396.52C91.0427 396.493 91.9674 396.431 92.9293 396.405C93.9168 396.379 94.9101 396.366 95.8648 396.342C96.865 396.317 97.8725 396.316 98.8192 396.293C99.836 396.27 100.778 396.217 101.712 396.198C102.756 396.177 103.788 396.197 104.7 396.182C105.805 396.164 106.756 396.107 107.615 396.101C109.022 396.091 110.076 396.154 110.63 396.183C110.792 396.192 111.117 396.179 111.298 396.193C111.102 396.031 110.634 395.817 110.328 395.566C110.101 395.379 109.959 395.168 109.68 394.939C109.443 394.744 108.958 394.54 108.688 394.319C108.446 394.121 108.394 393.908 108.128 393.691C107.882 393.489 107.768 393.278 107.505 393.063C107.256 392.86 106.876 392.655 106.615 392.442C106.364 392.238 106.142 392.029 105.882 391.817C105.629 391.612 105.196 391.407 104.935 391.196C104.681 390.99 104.634 390.777 104.374 390.567C104.118 390.36 103.694 390.155 103.435 389.946C103.178 389.739 102.9 389.531 102.64 389.322C102.381 389.114 102.247 388.902 101.988 388.694C101.727 388.485 101.326 388.28 101.066 388.072C100.803 387.862 100.573 387.653 100.313 387.446C100.048 387.236 100.005 387.022 99.7438 386.816C99.4761 386.604 98.9727 386.401 98.7114 386.195C98.4408 385.983 98.1659 385.774 97.9044 385.57C97.6304 385.356 97.5814 385.143 97.3197 384.94C97.0408 384.725 96.6843 384.518 96.4223 384.318C96.1363 384.1 96.0111 383.888 95.7487 383.691C95.4515 383.468 95.1321 383.26 94.8701 383.069C94.5496 382.835 93.9194 382.636 93.6607 382.458C93.2406 382.167 93.1128 381.949 92.8901 381.834C92.4854 381.625 91.9749 381.429 91.4516 381.243C90.891 381.044 90.2433 380.866 89.5828 380.7C88.8619 380.518 88.101 380.363 87.3075 380.23C86.4228 380.081 85.5556 379.948 84.6444 379.871C83.6454 379.787 82.6593 379.766 81.7134 379.783C80.7084 379.802 79.8648 379.881 79.0876 379.989C78.3135 380.097 77.7107 380.241 77.18 380.403C76.6366 380.569 76.1213 380.736 75.8514 380.922C75.5415 381.135 75.469 381.349 75.546 381.535C75.5785 381.614 75.8642 381.821 76.148 382.129C76.3043 382.299 76.3061 382.501 76.5232 382.727C76.699 382.909 76.8153 383.11 77.0244 383.323C77.2093 383.511 77.6384 383.709 77.8449 383.917C78.0342 384.109 78.2695 384.307 78.4738 384.512C78.6669 384.706 78.6402 384.907 78.8439 385.111C79.0389 385.306 79.1343 385.506 79.3368 385.707C79.5341 385.904 79.7733 386.103 79.9755 386.304C80.1741 386.502 80.4109 386.701 80.6122 386.901C80.8286 387.117 80.9352 387.328 81.1414 387.533C81.3579 387.749 81.8721 387.956 82.0774 388.161C82.294 388.377 82.3373 388.589 82.5416 388.793C82.7584 389.01 83.0103 389.22 83.2133 389.423C83.4303 389.641 83.6799 389.851 83.8817 390.054C84.0986 390.272 84.1187 390.484 84.3184 390.686C84.5358 390.905 85.0827 391.113 85.2801 391.314C85.4975 391.535 85.6058 391.746 85.7995 391.945C86.017 392.169 86.2316 392.379 86.4202 392.576C86.6379 392.803 86.591 393.015 86.7715 393.208C86.9901 393.442 87.353 393.651 87.5194 393.837C87.7419 394.087 87.9544 394.296 88.089 394.468C88.3738 394.831 88.2906 395.019 88.2239 395.085C88.162 395.145 88.3745 395.164 88.1644 395.204C87.9257 395.248 87.9096 395.247 87.577 395.257C87.1582 395.265 86.7367 395.194 85.1704 394.848C84.617 394.726 83.9653 394.561 83.1005 394.349C82.5107 394.204 81.8 394.043 81.031 393.847C80.4263 393.693 79.6122 393.545 78.8813 393.356C78.2685 393.196 77.6564 393.016 76.9462 392.829C76.3286 392.667 75.7998 392.474 75.103 392.289C74.4824 392.125 73.7784 391.959 73.0909 391.775C72.4681 391.609 71.8869 391.425 71.2063 391.242C70.5824 391.075 69.6764 390.939 69.0018 390.758C68.3764 390.59 67.7385 390.414 67.0678 390.233C66.4409 390.064 65.8809 389.876 65.2129 389.695C64.5844 389.525 63.9343 389.351 63.2683 389.17C62.6401 389 62.1496 388.802 61.487 388.622C60.8573 388.451 60.138 388.287 59.4763 388.107C58.8459 387.936 58.0065 387.789 57.3463 387.609C56.715 387.437 56.3238 387.224 55.6647 387.045C55.0328 386.873 54.1358 386.734 53.4776 386.554C52.8398 386.38 52.3498 386.193 51.7545 386.031C51.11 385.855 50.4075 385.699 49.8209 385.539C49.1627 385.36 48.7084 385.168 48.1342 385.012C47.4476 384.825 46.6834 384.678 46.1352 384.53C45.3484 384.318 44.6589 384.158 44.2078 384.04C43.5278 383.862 43.0377 383.678 42.3664 383.557C41.5436 383.409 40.6199 383.35 39.8258 383.274C38.8997 383.185 38.0519 383.117 37.1904 383.105C36.274 383.093 35.3803 383.102 34.5689 383.15C33.7267 383.201 32.9024 383.265 32.2094 383.35C31.5708 383.429 31.0431 383.601 30.4873 383.793C30.0528 383.943 29.7627 384.121 29.6188 384.341C29.4993 384.523 29.2611 384.72 29.4762 384.952C29.6532 385.142 30.0147 385.351 30.4935 385.575Z"/>
</mask>
<path d="M80.8717 405.505C80.3924 405.409 79.4863 405.293 78.064 405.046C77.3163 404.916 76.5211 404.725 75.4045 404.533C74.6549 404.404 73.7152 404.309 72.9001 404.168C72.1286 404.034 71.5484 403.839 70.7571 403.701C69.9702 403.563 69.1395 403.437 68.3701 403.3C67.5695 403.158 66.7299 403.033 65.9895 402.897C65.1706 402.747 64.4478 402.592 63.7567 402.457C62.8897 402.289 62.0732 402.153 61.5077 402.025C60.904 401.888 60.2296 401.712 59.4787 401.519C58.8594 401.359 58.0856 401.201 57.4126 401.018C56.7873 400.848 56.3038 400.648 55.6672 400.47C55.0361 400.292 54.2285 400.138 53.6193 399.963C52.9771 399.779 52.6515 399.559 52.071 399.389C51.3991 399.193 50.5354 399.043 50.0014 398.885C49.1418 398.63 48.7353 398.418 48.4346 398.327C48.4182 398.229 48.3851 398.026 48.4532 397.759C48.4974 397.585 48.5115 397.388 48.6554 397.188C48.7874 397.004 48.7751 396.8 49.0319 396.622C49.2962 396.439 49.735 396.274 50.1734 396.127C50.6527 395.967 51.2276 395.823 51.9685 395.742C52.7842 395.654 53.6079 395.598 54.3404 395.546C55.2601 395.48 56.0709 395.414 56.8076 395.389C58.0166 395.349 58.9171 395.397 59.4275 395.404C60.6009 395.699 60.4394 395.719 61.4598 396.035C62.4817 396.352 62.4776 396.353 63.4996 396.67C64.5215 396.986 64.6955 396.966 65.6624 397.289C65.5307 397.295 65.3774 397.303 65.2965 397.307C64.2182 397.359 63.3002 397.445 62.5645 397.561C61.7508 397.689 61.0769 397.847 60.7304 398.046C60.3253 398.278 60.3411 398.56 60.6394 398.862C60.6437 398.868 60.4835 398.875 60.4902 398.881C60.5108 398.9 60.7909 398.913 60.8139 398.93C61.0855 399.167 61.5124 399.418 62.1943 399.685C62.6711 399.871 63.1876 400.056 63.8499 400.225C64.4909 400.388 65.2148 400.544 66.0121 400.689C66.7699 400.826 67.6741 400.925 68.5576 401.043C69.3916 401.155 70.2439 401.268 71.1771 401.361C72.0595 401.449 72.9573 401.55 73.9173 401.62C74.8277 401.687 75.7871 401.717 76.7579 401.767C77.6832 401.815 78.6273 401.893 79.5996 401.924C80.53 401.955 81.4669 401.933 82.4331 401.948C83.2438 401.961 84.1436 402.024 85.0494 402.027C85.8771 402.03 86.682 402.028 87.5624 402.025C87.8981 402.134 88.5346 402.286 89.075 402.51C89.4718 402.674 89.7662 402.865 90.0865 403.057C90.3945 403.241 90.8657 403.432 90.9598 403.615C91.0576 403.806 90.7938 403.986 90.5054 404.148C90.1213 404.364 89.4901 404.525 88.884 404.68C88.2221 404.85 87.5609 405.005 86.7283 405.114C85.8455 405.23 84.8853 405.307 83.9248 405.37C82.8829 405.437 81.8614 405.482 80.8717 405.505ZM101.731 401.347C102.76 401.323 103.715 401.323 104.5 401.303C106.158 401.261 107.144 401.2 107.184 401.199C107.216 401.198 107.294 401.239 107.326 401.239C107.392 401.238 107.438 401.195 107.504 401.197C107.568 401.2 107.603 401.256 107.664 401.261C107.727 401.266 107.758 401.27 107.817 401.276C107.876 401.284 108.023 401.254 108.077 401.263C108.129 401.272 108.107 401.298 108.153 401.309C108.201 401.32 108.434 401.309 108.473 401.322C108.491 401.328 108.345 401.351 108.362 401.358C108.379 401.365 108.245 401.379 108.259 401.386C108.273 401.394 108.415 401.392 108.426 401.4C108.435 401.407 108.394 401.413 108.4 401.419C108.414 401.434 108.603 401.451 108.603 401.465C108.603 401.478 108.383 401.479 108.372 401.491C108.36 401.504 108.506 401.531 108.482 401.542C108.459 401.554 108.443 401.569 108.409 401.579C108.375 401.589 108.231 401.577 108.187 401.585C108.141 401.594 108.181 401.628 108.126 401.634C108.099 401.637 108.058 401.636 108.029 401.638C107.194 401.706 106.17 401.762 105.286 401.893C104.534 402.004 103.958 402.18 103.242 402.338C102.598 402.48 101.997 402.641 101.431 402.822C100.911 402.988 100.229 403.144 99.8139 403.344C99.4287 403.529 99.1768 403.741 98.9119 403.956C98.7034 404.126 98.3704 404.305 98.249 404.512C98.1427 404.692 98.1173 404.893 98.1126 405.102C98.1083 405.289 98.5046 405.497 98.6071 405.706C98.7003 405.897 98.6287 406.095 98.8287 406.304C99.0119 406.496 99.2869 406.694 99.5742 406.901C99.8386 407.092 100.189 407.287 100.553 407.491C100.89 407.679 101.276 407.872 101.707 408.072C102.107 408.257 102.458 408.454 102.947 408.649C103.403 408.831 103.966 409.011 104.505 409.201C104.805 409.307 104.685 409.455 104.226 409.501C104.207 409.503 104.2 409.513 104.181 409.514C103.73 409.551 103.072 409.476 102.785 409.374C102.213 409.172 101.642 408.977 101.159 408.784C100.641 408.576 100.067 408.38 99.6435 408.182C99.1878 407.97 98.9571 407.752 98.6018 407.551C98.2185 407.334 97.9672 407.122 97.6898 406.919C97.3887 406.699 96.9152 406.489 96.7247 406.285C96.5174 406.063 96.3309 405.846 96.2365 405.643C96.133 405.42 96.3217 405.213 96.3304 405.014C96.34 404.792 96.5164 404.593 96.6321 404.401C96.7638 404.182 96.911 403.983 97.1327 403.802C97.3797 403.601 97.6489 403.406 98.0124 403.221C98.383 403.032 98.9019 402.867 99.382 402.698C99.8728 402.524 100.153 402.318 100.746 402.168C101.355 402.013 102.161 401.891 102.864 401.764C102.062 401.783 101.147 401.803 100.222 401.823C99.3893 401.841 98.5248 401.867 97.622 401.884C96.7705 401.9 95.8475 401.875 94.9582 401.889C94.0894 401.903 93.2883 401.988 92.4059 401.999C91.5224 402.01 90.6803 401.991 89.8054 401.998C90.2369 402.149 90.7745 402.328 91.268 402.552C91.6757 402.738 91.8285 402.952 92.1209 403.161C92.4029 403.363 92.7662 403.568 92.8105 403.77C92.855 403.973 92.7802 404.177 92.4573 404.358C92.0727 404.575 91.3949 404.748 90.7502 404.924C90.1096 405.098 89.3968 405.257 88.5186 405.389C87.6782 405.515 86.8166 405.649 85.7758 405.733C84.562 405.832 83.0549 405.858 81.5932 405.897C81.5815 406.167 80.9734 406.509 80.5716 406.697C80.2322 406.856 79.8018 407.048 79.0964 407.238C78.5346 407.389 77.999 407.572 77.1442 407.707C76.3975 407.825 75.4833 407.919 74.4744 408.001C73.7764 408.057 72.9537 408.067 72.1154 408.098C71.361 408.126 70.5844 408.156 69.7073 408.157C68.793 408.158 67.8687 408.104 66.8607 408.036C65.9534 407.975 64.932 407.955 63.9742 407.847C63.1025 407.75 62.203 407.631 61.3085 407.503C60.4722 407.383 59.7225 407.227 58.8815 407.087C59.8246 407.328 60.7816 407.569 61.7518 407.817C62.4085 407.984 62.9177 408.176 63.5748 408.344C64.2358 408.512 64.9666 408.668 65.6203 408.835C66.2861 409.004 67.1335 409.142 67.7836 409.307C68.4544 409.477 68.8701 409.684 69.5154 409.848C70.1942 410.02 71.0987 410.148 71.7391 410.31C72.4278 410.484 72.9681 410.671 73.5996 410.83C74.3055 411.007 75.0527 411.161 75.6701 411.315C76.4136 411.5 76.9299 411.694 77.5164 411.838C78.4206 412.06 79.251 412.204 79.6865 412.303C80.353 412.454 81.1898 412.591 82.1405 412.741C82.944 412.867 83.7171 413.039 84.7097 413.16C85.585 413.267 86.624 413.318 87.6371 413.418C88.5538 413.509 89.4832 413.621 90.5059 413.703C91.45 413.78 92.4231 413.868 93.4521 413.937C94.4145 414 95.4097 414.074 96.4421 414.129C97.4147 414.181 98.4312 414.181 99.4625 414.224C100.441 414.266 101.439 414.295 102.468 414.328C103.45 414.359 104.463 414.44 105.487 414.463C106.47 414.485 107.457 414.466 108.477 414.479C109.457 414.491 110.486 414.548 111.498 414.552C112.543 414.556 113.529 414.509 114.526 414.497C115.556 414.485 116.554 414.464 117.532 414.436C118.538 414.407 119.561 414.396 120.512 414.35C121.485 414.302 122.452 414.252 123.367 414.186C124.296 414.119 125.121 414.012 125.99 413.927C126.864 413.84 127.637 413.724 128.45 413.619C129.263 413.514 130.205 413.444 130.956 413.32C131.699 413.198 132.368 413.054 133.05 412.913C133.721 412.775 134.296 412.615 134.907 412.459C135.504 412.306 136.093 412.15 136.633 411.981C137.159 411.816 137.819 411.677 138.279 411.514C138.761 411.343 139.074 411.152 139.487 410.983C139.921 410.804 140.433 410.641 140.794 410.465C141.173 410.28 141.519 410.095 141.822 409.912C142.14 409.721 142.333 409.521 142.572 409.333C142.823 409.135 142.853 408.925 143.023 408.73C143.2 408.527 143.592 408.342 143.687 408.143C143.787 407.935 143.774 407.724 143.792 407.521C143.81 407.309 143.698 407.097 143.636 406.891C143.571 406.677 143.434 406.467 143.292 406.259C143.145 406.044 143.116 405.832 142.897 405.625C142.671 405.411 142.329 405.201 142.037 404.995C141.735 404.782 141.297 404.579 140.938 404.376C140.567 404.165 140.318 403.952 139.9 403.752C139.465 403.544 138.963 403.345 138.494 403.15C138.001 402.945 137.399 402.755 136.887 402.565C136.342 402.362 135.873 402.16 135.329 401.976C134.738 401.775 134.169 401.583 133.608 401.404C132.973 401.202 132.224 401.031 131.669 400.86C131.274 400.737 131.537 400.705 131.143 400.582C130.543 400.395 129.626 400.243 128.948 400.057C128.285 399.875 127.794 399.663 127.078 399.486C126.363 399.309 125.481 399.162 124.734 398.992C123.975 398.82 123.398 398.614 122.627 398.453C121.826 398.285 120.803 398.175 120.012 398.023C119.165 397.86 118.489 397.667 117.684 397.525C116.777 397.366 115.837 397.242 115.022 397.116C114.013 396.961 113.127 396.818 112.331 396.723C112.254 396.716 112.112 396.742 112.043 396.732C111.406 396.659 110.917 396.569 110.48 396.546C110 396.52 109.037 396.572 107.65 396.585C106.835 396.592 105.8 396.526 104.743 396.544C103.875 396.559 102.953 396.594 101.955 396.616C101.066 396.634 100.159 396.677 99.1885 396.7C98.2872 396.721 97.3335 396.728 96.3787 396.752C95.4697 396.775 94.5729 396.824 93.63 396.849C92.7135 396.873 91.7753 396.892 90.84 396.918C89.9173 396.943 89.0346 397.002 88.1063 397.029C87.1776 397.055 86.1881 397.039 85.2664 397.066C84.3333 397.094 83.4773 397.17 82.5643 397.198C81.625 397.227 80.5191 397.18 79.6151 397.208C79.6939 397.293 80.0186 397.414 80.1035 397.503C80.3148 397.723 80.2653 397.95 80.4381 398.172C80.6175 398.403 80.7691 398.625 80.7955 398.835C80.8256 399.074 80.7903 399.289 80.4653 399.468C80.1091 399.664 79.6168 399.848 78.6239 399.929C78.5476 399.935 78.4195 399.922 78.3386 399.927C77.664 399.972 76.8263 400.031 75.858 400.071C75.0605 400.104 74.1597 400.118 73.2449 400.137C72.3854 400.155 71.5051 400.19 70.6054 400.188C69.6984 400.186 68.7613 400.118 67.8761 400.087C66.9355 400.055 65.9299 400.016 65.0873 399.943C65.7552 400.118 66.5741 400.309 67.4547 400.461C68.2745 400.602 69.2545 400.708 70.2352 400.826C71.1444 400.935 72.1015 401.042 73.1306 401.129C74.0892 401.21 75.0962 401.281 76.1437 401.341C77.1278 401.398 78.1485 401.463 79.1986 401.499C80.1919 401.534 81.215 401.548 82.257 401.564C83.1338 401.577 84.1101 401.618 85.1097 401.62C86.0107 401.623 86.909 401.566 87.8739 401.561C88.7882 401.556 89.7297 401.556 90.6714 401.546C91.5966 401.536 92.5446 401.54 93.4686 401.526C94.4045 401.513 95.3359 401.499 96.2423 401.483C97.193 401.466 98.0758 401.412 98.9619 401.394C99.9358 401.374 100.877 401.367 101.731 401.347ZM62.6505 398.25C62.3533 398.42 62.5216 398.63 62.7678 398.864C63.0816 399.125 63.5781 399.336 64.6463 399.478C65.5415 399.597 66.6856 399.618 67.9023 399.658C68.9493 399.692 70.1094 399.781 71.2252 399.773C72.3193 399.765 73.4055 399.723 74.4166 399.688C75.579 399.648 76.6045 399.573 77.4472 399.517C78.4159 399.451 78.9024 399.247 78.9909 398.965C79.0562 398.757 78.8317 398.504 78.6421 398.242C78.4711 398.005 78.2672 397.757 78.0374 397.518C77.9678 397.446 77.9054 397.408 77.8392 397.337C76.8108 397.37 75.8038 397.359 74.8601 397.389C73.8087 397.424 72.8908 397.505 71.9755 397.537C70.8721 397.574 69.7568 397.529 68.9033 397.56C67.5245 397.61 66.6175 397.715 66.0854 397.741C65.444 397.772 64.557 397.775 63.9144 397.871C63.3524 397.954 62.9258 398.092 62.6505 398.25ZM42.8844 402.985C42.8846 402.985 43.0308 402.965 43.0309 402.965C43.0481 402.97 43.5783 403.186 44.7472 403.491C45.2936 403.633 46.1363 403.769 46.8714 403.953C47.4781 404.105 47.872 404.314 48.5821 404.484C49.2245 404.638 49.9626 404.789 50.6721 404.952C51.3443 405.106 52.1136 405.249 52.8313 405.405C53.6625 405.586 54.4267 405.767 55.219 405.928C56.0864 406.104 57.0005 406.251 57.819 406.402C58.7329 406.571 59.5964 406.73 60.4456 406.868C61.4232 407.026 62.4216 407.137 63.3085 407.254C64.3729 407.394 65.2917 407.541 66.2167 407.62C67.3851 407.719 68.4166 407.72 69.3453 407.719C70.5688 407.717 71.7619 407.761 72.7107 407.704C73.8366 407.635 74.6182 407.473 75.4037 407.358C76.368 407.217 77.3 407.099 77.8361 406.948C78.4681 406.771 78.9089 406.583 79.2186 406.42C79.754 406.138 79.8147 405.889 79.7862 405.804C79.4653 405.737 78.2744 405.576 76.947 405.346C76.1003 405.199 75.1982 405.019 74.2537 404.857C73.4901 404.725 72.6478 404.596 71.8169 404.452C71.0312 404.316 70.2622 404.166 69.4557 404.025C68.6545 403.885 67.785 403.762 67.0011 403.622C66.1866 403.477 65.5386 403.295 64.7839 403.156C63.9521 403.003 63.1725 402.857 62.4671 402.719C61.5919 402.549 60.846 402.395 60.2622 402.262C59.6496 402.123 58.8505 401.971 58.1037 401.779C57.4802 401.619 56.8547 401.439 56.181 401.257C55.5536 401.087 54.9136 400.91 54.2757 400.731C53.6424 400.554 53.0769 400.366 52.4646 400.19C51.8232 400.007 51.1581 399.833 50.5747 399.662C49.9077 399.468 49.4135 399.27 48.8728 399.109C48.0784 398.874 47.2522 398.713 46.8733 398.599C46.7952 398.603 46.7694 398.608 46.6609 398.617C46.1868 398.655 45.3843 398.725 44.3392 398.908C43.7751 399.007 43.1171 399.133 42.3853 399.298C41.8434 399.42 41.3931 399.589 40.7586 399.755C40.1035 399.927 39.6417 400.107 39.4138 400.315C39.1813 400.527 39.043 400.748 39.162 400.981C39.2769 401.206 39.6756 401.435 40.032 401.666C40.3822 401.892 40.6598 402.126 41.1609 402.344C41.6783 402.569 42.2942 402.784 42.8844 402.985ZM30.4935 385.575C30.7846 385.711 31.4664 385.896 32.1699 386.147C32.6462 386.316 33.0275 386.526 33.6563 386.737C34.1833 386.914 34.9748 387.08 35.5897 387.281C36.1419 387.461 36.4175 387.685 37.0272 387.88C37.5951 388.062 38.2499 388.243 38.8573 388.435C39.4362 388.618 40.1143 388.795 40.7201 388.985C41.3074 389.17 41.844 389.364 42.4484 389.552C43.0431 389.737 43.7357 389.912 44.3391 390.099C44.9404 390.285 45.5185 390.474 46.121 390.66C46.7285 390.847 47.4581 391.018 48.0592 391.202C48.6729 391.39 49.1173 391.596 49.7162 391.779C50.3363 391.968 51.1307 392.131 51.7258 392.312C52.3527 392.503 52.6615 392.726 53.2502 392.904C53.8894 393.098 54.752 393.252 55.333 393.428C55.9894 393.626 56.3906 393.839 56.9544 394.008C57.6506 394.218 58.2864 394.402 58.8078 394.558C59.9304 394.895 60.6578 395.09 60.6997 395.103C60.7061 395.104 60.8655 395.084 60.8721 395.086C60.8721 395.086 60.7963 395.096 60.7963 395.096C60.7973 395.096 60.8442 395.09 60.8452 395.09C61.4889 395.282 61.4546 395.287 62.0809 395.481C62.0978 395.487 62.1042 395.463 62.1208 395.468C63.0348 395.759 62.8459 395.782 63.7777 396.071C64.3998 396.263 65.0218 396.456 65.6437 396.649C66.577 396.939 66.3406 396.984 67.5222 397.233C68.272 397.206 69.2267 397.151 70.2487 397.116C71.0673 397.088 71.9786 397.067 72.9401 397.035C73.7867 397.007 74.6835 396.978 75.62 396.948C76.4839 396.92 77.408 396.909 78.3326 396.88C78.3726 396.878 78.3837 396.862 78.4262 396.862C78.4354 396.862 78.4957 396.896 78.505 396.896C79.4458 396.866 80.334 396.782 81.3194 396.752C82.2703 396.722 83.2494 396.701 84.2267 396.672C85.1872 396.643 86.1788 396.629 87.1509 396.601C88.1211 396.573 89.0963 396.547 90.0642 396.52C91.0427 396.493 91.9674 396.431 92.9293 396.405C93.9168 396.379 94.9101 396.366 95.8648 396.342C96.865 396.317 97.8725 396.316 98.8192 396.293C99.836 396.27 100.778 396.217 101.712 396.198C102.756 396.177 103.788 396.197 104.7 396.182C105.805 396.164 106.756 396.107 107.615 396.101C109.022 396.091 110.076 396.154 110.63 396.183C110.792 396.192 111.117 396.179 111.298 396.193C111.102 396.031 110.634 395.817 110.328 395.566C110.101 395.379 109.959 395.168 109.68 394.939C109.443 394.744 108.958 394.54 108.688 394.319C108.446 394.121 108.394 393.908 108.128 393.691C107.882 393.489 107.768 393.278 107.505 393.063C107.256 392.86 106.876 392.655 106.615 392.442C106.364 392.238 106.142 392.029 105.882 391.817C105.629 391.612 105.196 391.407 104.935 391.196C104.681 390.99 104.634 390.777 104.374 390.567C104.118 390.36 103.694 390.155 103.435 389.946C103.178 389.739 102.9 389.531 102.64 389.322C102.381 389.114 102.247 388.902 101.988 388.694C101.727 388.485 101.326 388.28 101.066 388.072C100.803 387.862 100.573 387.653 100.313 387.446C100.048 387.236 100.005 387.022 99.7438 386.816C99.4761 386.604 98.9727 386.401 98.7114 386.195C98.4408 385.983 98.1659 385.774 97.9044 385.57C97.6304 385.356 97.5814 385.143 97.3197 384.94C97.0408 384.725 96.6843 384.518 96.4223 384.318C96.1363 384.1 96.0111 383.888 95.7487 383.691C95.4515 383.468 95.1321 383.26 94.8701 383.069C94.5496 382.835 93.9194 382.636 93.6607 382.458C93.2406 382.167 93.1128 381.949 92.8901 381.834C92.4854 381.625 91.9749 381.429 91.4516 381.243C90.891 381.044 90.2433 380.866 89.5828 380.7C88.8619 380.518 88.101 380.363 87.3075 380.23C86.4228 380.081 85.5556 379.948 84.6444 379.871C83.6454 379.787 82.6593 379.766 81.7134 379.783C80.7084 379.802 79.8648 379.881 79.0876 379.989C78.3135 380.097 77.7107 380.241 77.18 380.403C76.6366 380.569 76.1213 380.736 75.8514 380.922C75.5415 381.135 75.469 381.349 75.546 381.535C75.5785 381.614 75.8642 381.821 76.148 382.129C76.3043 382.299 76.3061 382.501 76.5232 382.727C76.699 382.909 76.8153 383.11 77.0244 383.323C77.2093 383.511 77.6384 383.709 77.8449 383.917C78.0342 384.109 78.2695 384.307 78.4738 384.512C78.6669 384.706 78.6402 384.907 78.8439 385.111C79.0389 385.306 79.1343 385.506 79.3368 385.707C79.5341 385.904 79.7733 386.103 79.9755 386.304C80.1741 386.502 80.4109 386.701 80.6122 386.901C80.8286 387.117 80.9352 387.328 81.1414 387.533C81.3579 387.749 81.8721 387.956 82.0774 388.161C82.294 388.377 82.3373 388.589 82.5416 388.793C82.7584 389.01 83.0103 389.22 83.2133 389.423C83.4303 389.641 83.6799 389.851 83.8817 390.054C84.0986 390.272 84.1187 390.484 84.3184 390.686C84.5358 390.905 85.0827 391.113 85.2801 391.314C85.4975 391.535 85.6058 391.746 85.7995 391.945C86.017 392.169 86.2316 392.379 86.4202 392.576C86.6379 392.803 86.591 393.015 86.7715 393.208C86.9901 393.442 87.353 393.651 87.5194 393.837C87.7419 394.087 87.9544 394.296 88.089 394.468C88.3738 394.831 88.2906 395.019 88.2239 395.085C88.162 395.145 88.3745 395.164 88.1644 395.204C87.9257 395.248 87.9096 395.247 87.577 395.257C87.1582 395.265 86.7367 395.194 85.1704 394.848C84.617 394.726 83.9653 394.561 83.1005 394.349C82.5107 394.204 81.8 394.043 81.031 393.847C80.4263 393.693 79.6122 393.545 78.8813 393.356C78.2685 393.196 77.6564 393.016 76.9462 392.829C76.3286 392.667 75.7998 392.474 75.103 392.289C74.4824 392.125 73.7784 391.959 73.0909 391.775C72.4681 391.609 71.8869 391.425 71.2063 391.242C70.5824 391.075 69.6764 390.939 69.0018 390.758C68.3764 390.59 67.7385 390.414 67.0678 390.233C66.4409 390.064 65.8809 389.876 65.2129 389.695C64.5844 389.525 63.9343 389.351 63.2683 389.17C62.6401 389 62.1496 388.802 61.487 388.622C60.8573 388.451 60.138 388.287 59.4763 388.107C58.8459 387.936 58.0065 387.789 57.3463 387.609C56.715 387.437 56.3238 387.224 55.6647 387.045C55.0328 386.873 54.1358 386.734 53.4776 386.554C52.8398 386.38 52.3498 386.193 51.7545 386.031C51.11 385.855 50.4075 385.699 49.8209 385.539C49.1627 385.36 48.7084 385.168 48.1342 385.012C47.4476 384.825 46.6834 384.678 46.1352 384.53C45.3484 384.318 44.6589 384.158 44.2078 384.04C43.5278 383.862 43.0377 383.678 42.3664 383.557C41.5436 383.409 40.6199 383.35 39.8258 383.274C38.8997 383.185 38.0519 383.117 37.1904 383.105C36.274 383.093 35.3803 383.102 34.5689 383.15C33.7267 383.201 32.9024 383.265 32.2094 383.35C31.5708 383.429 31.0431 383.601 30.4873 383.793C30.0528 383.943 29.7627 384.121 29.6188 384.341C29.4993 384.523 29.2611 384.72 29.4762 384.952C29.6532 385.142 30.0147 385.351 30.4935 385.575Z" stroke="white" stroke-width="3.43984" mask="url(#path-8-inside-1_416_1592)"/>
</g>
<g opacity="0.3" clip-path="url(#clip0_416_1592)">
<path d="M1159.16 201.415C1153.77 202.013 1150.01 203.002 1148.28 204.125C1147 204.96 1146.83 205.887 1148.07 206.791C1145.19 206.071 1141.43 205.58 1137.41 205.335C1132 205.004 1125.98 205.104 1120.6 205.703C1115.22 206.301 1111.45 207.29 1109.73 208.413C1108.02 209.531 1108.29 210.814 1111.26 211.983C1115.59 213.694 1123.44 214.922 1133.43 215.669C1143.37 216.413 1155.61 216.697 1169.1 216.489L1211.86 233.374C1212.35 233.567 1213.11 233.65 1213.69 233.678C1214.32 233.708 1215 233.688 1215.6 233.621L1216.26 233.548C1216.86 233.481 1217.31 233.375 1217.55 233.249C1217.77 233.132 1217.86 232.955 1217.37 232.761L1174.61 215.876C1182.99 213.651 1188.73 211.368 1191.36 209.227C1194 207.074 1193.55 205.023 1189.22 203.312C1186.25 202.142 1181.34 201.375 1175.96 201.047C1170.56 200.716 1164.54 200.816 1159.16 201.415ZM1166.48 217.016L1166.08 217.02C1151.97 217.186 1139.51 216.824 1129.54 216.007C1119.54 215.187 1112.22 213.925 1108.17 212.326C1105.15 211.133 1104.76 209.744 1106.8 208.454C1108.84 207.169 1113.27 206.016 1119.61 205.31C1127.57 204.425 1136.6 204.461 1143.74 205.218L1144.21 205.268L1144.28 205.159C1145.28 203.495 1150.21 201.907 1158.16 201.022C1164.5 200.317 1171.54 200.195 1177.76 200.561C1184.01 200.929 1189.27 201.776 1192.3 202.969C1196.35 204.569 1197.23 206.546 1194.87 208.74C1192.51 210.928 1186.96 213.294 1178.4 215.651L1178.16 215.717L1220.3 232.359C1220.85 232.575 1220.96 232.873 1220.36 233.191C1219.78 233.501 1218.6 233.791 1216.92 233.977C1215.24 234.163 1213.43 234.207 1211.88 234.134C1210.29 234.059 1209.18 233.874 1208.63 233.658L1166.48 217.016Z" stroke="white" stroke-width="0.859961"/>
<path d="M1216.52 232.856C1216.53 232.861 1216.63 232.913 1216.46 233.006C1216.3 233.091 1215.96 233.176 1215.46 233.232L1214.8 233.305C1214.3 233.361 1213.77 233.372 1213.35 233.352C1212.88 233.33 1212.73 233.283 1212.72 233.278L1170.15 216.472C1170.88 216.459 1171.62 216.446 1172.36 216.43L1172.47 216.428L1172.55 216.409C1173.03 216.289 1173.49 216.169 1173.95 216.049L1216.52 232.856Z" stroke="white" stroke-width="0.859961"/>
<path d="M1159.96 201.73C1165.22 201.145 1171.07 201.052 1176.25 201.369C1181.45 201.687 1185.82 202.405 1188.36 203.407C1192.25 204.944 1192.85 206.873 1190.23 209.009C1187.62 211.135 1181.86 213.423 1173.38 215.659C1172.81 215.808 1172.24 215.955 1171.65 216.103C1170.74 216.122 1169.83 216.139 1168.93 216.154C1155.34 216.373 1143.07 216.089 1133.2 215.351C1123.29 214.609 1116 213.425 1112.11 211.888L1111.88 211.794C1109.55 210.814 1109.24 209.69 1110.85 208.643C1112.5 207.567 1116.14 206.604 1121.4 206.018C1126.67 205.433 1132.52 205.341 1137.69 205.657C1142.89 205.975 1147.27 206.693 1149.81 207.695L1150.66 207.6L1150.43 207.506C1148.1 206.526 1147.79 205.402 1149.4 204.355C1151.05 203.279 1154.69 202.316 1159.96 201.73Z" stroke="white" stroke-width="0.859961"/>
</g>
<path opacity="0.3" d="M1246.22 72.894C1249.66 56.8943 1263.07 44.3155 1280.07 41.0005C1263.07 37.6855 1249.66 25.1072 1246.22 9.10791C1242.78 25.1075 1229.37 37.6859 1212.37 41.0005C1229.37 44.3151 1242.78 56.894 1246.22 72.894Z" stroke="white" stroke-width="1.71992"/>
<g opacity="0.3">
<path d="M1006.63 522.293C1030.26 522.293 1049.42 504.385 1049.42 482.293C1049.42 460.202 1030.26 442.293 1006.63 442.293C982.998 442.293 963.841 460.202 963.841 482.293C963.841 504.385 982.998 522.293 1006.63 522.293Z" stroke="white" stroke-width="1.71992" stroke-miterlimit="10"/>
<path d="M1006.63 450.022C1025.79 450.023 1041.21 464.524 1041.21 482.294C1041.21 500.064 1025.79 514.566 1006.63 514.566C987.477 514.566 972.049 500.064 972.049 482.294C972.05 464.524 987.477 450.022 1006.63 450.022Z" stroke="white" stroke-width="1.71992"/>
<path d="M994.881 467.877C996.954 464.192 999.501 461.231 1001.91 459.413C1003.11 458.503 1004.25 457.905 1005.24 457.626C1006.23 457.348 1007.03 457.397 1007.65 457.702C1008.28 458.007 1008.77 458.595 1009.09 459.514C1009.41 460.439 1009.52 461.654 1009.41 463.097C1009.17 465.982 1008 469.622 1005.93 473.308C1003.86 476.994 1001.31 479.955 998.903 481.773C997.699 482.683 996.562 483.281 995.566 483.56C994.577 483.837 993.778 483.788 993.157 483.483C992.537 483.178 992.04 482.591 991.723 481.671C991.405 480.747 991.288 479.532 991.406 478.089C991.643 475.204 992.808 471.564 994.881 467.877Z" stroke="white" stroke-width="1.71992"/>
<path d="M1015.03 477.782C1017.1 474.096 1019.65 471.135 1022.06 469.317C1023.26 468.408 1024.4 467.809 1025.39 467.53C1026.38 467.253 1027.18 467.301 1027.8 467.606C1028.42 467.911 1028.92 468.5 1029.24 469.419C1029.56 470.343 1029.67 471.558 1029.55 473.001C1029.32 475.886 1028.15 479.526 1026.08 483.212C1024.01 486.898 1021.46 489.86 1019.05 491.678C1017.85 492.587 1016.71 493.185 1015.71 493.464C1014.73 493.742 1013.93 493.693 1013.31 493.388C1012.69 493.083 1012.19 492.495 1011.87 491.576C1011.55 490.651 1011.44 489.437 1011.55 487.993C1011.79 485.109 1012.96 481.468 1015.03 477.782Z" stroke="white" stroke-width="1.71992"/>
<path d="M1024.34 480.102C1024.9 479.095 1025.59 478.312 1026.2 477.852C1026.5 477.621 1026.76 477.495 1026.94 477.444C1027.12 477.394 1027.18 477.425 1027.18 477.426C1027.18 477.428 1027.24 477.456 1027.3 477.619C1027.36 477.79 1027.39 478.057 1027.36 478.424C1027.3 479.155 1027 480.124 1026.43 481.132C1025.87 482.14 1025.18 482.923 1024.57 483.384C1024.27 483.614 1024.01 483.74 1023.83 483.791C1023.65 483.841 1023.59 483.81 1023.59 483.808C1023.59 483.807 1023.53 483.781 1023.47 483.616C1023.41 483.445 1023.38 483.178 1023.41 482.812C1023.47 482.08 1023.77 481.11 1024.34 480.102Z" stroke="white" stroke-width="1.71992"/>
<path d="M1003.28 471.289C1003.85 470.281 1004.53 469.499 1005.14 469.038C1005.45 468.807 1005.7 468.682 1005.89 468.63C1006.07 468.58 1006.12 468.611 1006.13 468.612C1006.13 468.614 1006.19 468.643 1006.25 468.806C1006.3 468.977 1006.34 469.244 1006.31 469.61C1006.25 470.341 1005.95 471.311 1005.38 472.318C1004.81 473.326 1004.13 474.109 1003.52 474.57C1003.21 474.801 1002.96 474.926 1002.77 474.978C1002.6 475.027 1002.54 474.997 1002.54 474.995C1002.53 474.994 1002.47 474.967 1002.42 474.802C1002.36 474.631 1002.32 474.365 1002.35 473.998C1002.41 473.267 1002.72 472.297 1003.28 471.289Z" stroke="white" stroke-width="1.71992"/>
<path d="M993.97 504.816C988.443 502.099 984.304 497.884 982.318 492.94C980.26 487.82 980.678 482.239 983.496 477.227C983.742 476.793 984.314 476.628 984.779 476.854C985.244 477.083 985.42 477.618 985.178 478.053C979.961 487.332 984.031 497.928 994.856 503.248C1005.68 508.568 1017.32 505.692 1022.54 496.412C1022.79 495.977 1023.36 495.813 1023.82 496.039C1024.29 496.268 1024.47 496.803 1024.22 497.238C1021.41 502.249 1016.73 505.736 1011.05 507.055C1005.57 508.327 999.503 507.534 993.976 504.816H993.97Z" fill="white"/>
</g>
<path opacity="0.3" d="M39.2705 631.555C36.7318 629.34 33.1776 624.133 39.2705 621.021C46.8866 617.131 60.4869 625.397 56.9508 628.476C53.4147 631.555 59.9428 635.769 61.3029 636.093C62.6629 636.417 66.199 640.468 62.6629 644.196C59.1268 647.923 51.5107 652.947 61.3029 655.864C66.6486 657.457 67.2115 660.788 66.532 663.643M52.3267 667.209C57.7668 668.505 59.3988 671.584 59.3988 672.557C64.4037 675.798 65.8363 673.907 65.9269 672.557C65.2016 671.53 63.8597 669.283 64.2949 668.505C64.4368 668.252 64.9673 667.469 65.5002 666.398M52.3267 667.209C45.7986 667.371 30.8383 668.667 35.1904 672.557C39.5425 676.446 66.743 676.122 79.7992 675.474C84.6953 674.718 92.5834 672.46 84.9673 669.478C77.3512 666.496 68.8158 666.182 65.5002 666.398M52.3267 667.209C50.4605 666.764 50.0988 665.423 50.0226 663.643M52.3267 667.209L50.0226 663.643M39.2705 632.365C42.5345 633.014 39.3611 637.713 37.3664 639.982C36.2784 642.197 36.1152 647.664 44.1666 651.813C50.7783 655.22 49.8767 660.235 50.0226 663.643M65.5002 666.398C65.8951 665.605 66.2914 664.654 66.532 663.643M50.0226 663.643C42.2678 663.643 26.9759 665.199 27.8463 671.422C28.9343 679.201 27.5744 694.759 42.2626 697.028C56.9508 699.297 88.2314 706.59 92.3115 684.387C92.9462 687.629 96.2284 693.398 104.28 690.546C114.344 686.98 117.336 676.608 106.728 674.015C98.2412 671.941 95.5756 674.988 95.3036 676.77C97.2482 671.8 94.2164 662.217 66.532 663.643" stroke="white" stroke-width="1.71992"/>
<path opacity="0.3" d="M1070.16 568.217C1070.13 567.228 1074.41 566.061 1083.88 565.088C1093.3 564.12 1107.61 563.379 1126.87 563.248L1128.33 563.238L1128.18 562.975C1126.14 559.493 1128.14 556.816 1132.08 554.983C1136.03 553.142 1141.78 552.207 1147.17 552.071C1152.57 551.935 1158.36 552.58 1162.42 554.22C1166.45 555.851 1168.6 558.424 1166.77 562.003L1166.63 562.273L1168.08 562.209C1187.33 561.37 1201.65 561.39 1211.12 561.883C1220.64 562.377 1224.98 563.328 1225 564.317C1225.03 565.305 1220.75 566.473 1211.28 567.446C1201.86 568.414 1187.55 569.155 1168.29 569.286L1166.83 569.296L1166.99 569.559C1169.02 573.041 1167.02 575.718 1163.09 577.55C1159.13 579.391 1153.38 580.327 1147.99 580.463C1142.6 580.599 1136.8 579.954 1132.75 578.314C1128.71 576.682 1126.56 574.11 1128.39 570.531L1128.53 570.261L1127.08 570.324C1107.84 571.163 1093.51 571.143 1084.04 570.651C1074.53 570.156 1070.19 569.206 1070.16 568.217Z" stroke="white" stroke-width="1.71992"/>
<path opacity="0.3" d="M89.719 148.396C87.3776 145.863 87.336 141.149 91.0833 134.818C94.8158 128.511 102.213 120.813 114.246 112.694L115.24 112.023L114.45 111.343C104.884 103.116 99.8208 95.3551 97.9965 89.0208C96.1651 82.6613 97.6287 77.9553 100.731 75.4495C103.869 72.9145 109.138 72.2478 115.636 74.8772C122.097 77.4917 129.579 83.3099 136.895 93.3437L137.433 94.0798L138.191 93.3501C148.523 83.4043 157.75 77.6699 164.99 75.1239C172.271 72.5633 177.331 73.2818 179.699 75.8446C182.041 78.3778 182.083 83.0912 178.336 89.4227C174.604 95.7292 167.205 103.427 155.173 111.546L154.179 112.217L154.969 112.897C164.534 121.124 169.599 128.885 171.423 135.219C173.254 141.579 171.79 146.284 168.688 148.79C165.549 151.325 160.28 151.993 153.783 149.363C147.322 146.749 139.839 140.93 132.524 130.897L131.987 130.159L131.228 130.89C120.895 140.836 111.669 146.57 104.429 149.116C97.1472 151.677 92.0877 150.958 89.719 148.396Z" stroke="white" stroke-width="1.71992"/>
<defs>
<filter id="filter0_d_416_1592" x="1274.06" y="433.97" width="90.1095" height="68.7431" filterUnits="userSpaceOnUse" color-interpolation-filters="sRGB">
<feFlood flood-opacity="0" result="BackgroundImageFix"/>
<feColorMatrix in="SourceAlpha" type="matrix" values="0 0 0 0 0 0 0 0 0 0 0 0 0 0 0 0 0 0 127 0" result="hardAlpha"/>
<feOffset dy="0.859961"/>
<feGaussianBlur stdDeviation="0.859961"/>
<feComposite in2="hardAlpha" operator="out"/>
<feColorMatrix type="matrix" values="0 0 0 0 0 0 0 0 0 0 0 0 0 0 0 0 0 0 0.12 0"/>
<feBlend mode="normal" in2="BackgroundImageFix" result="effect1_dropShadow_416_1592"/>
<feBlend mode="normal" in="SourceGraphic" in2="effect1_dropShadow_416_1592" result="shape"/>
</filter>
<clipPath id="clip0_416_1592">
<rect width="85.5023" height="84.7569" fill="white" transform="matrix(0.993871 -0.110544 0.930125 0.367243 1096 207.734)"/>
</clipPath>
</defs>
</svg>
